<?xml version="1.0" encoding="utf-8"?>
<!-- Generator: Adobe Illustrator 21.0.0, SVG Export Plug-In . SVG Version: 6.00 Build 0)  -->
<svg version="1.1" id="Layer_1" xmlns="http://www.w3.org/2000/svg" xmlns:xlink="http://www.w3.org/1999/xlink" x="0px" y="0px"
	 viewBox="0 0 512 512" style="enable-background:new 0 0 512 512;" xml:space="preserve">
<g>
	<path d="M491.9,156.4c-19.5-46-51.9-85-92.7-112.6C358.3,16.1,308.9,0,256,0c-35.3,0-69,7.2-99.6,20.1c-46,19.5-85,51.9-112.6,92.7
		C16.1,153.7,0,203.1,0,256c0,35.3,7.2,69,20.1,99.6c19.5,46,51.9,85,92.7,112.6C153.7,495.9,203.1,512,256,512
		c35.3,0,69-7.2,99.6-20.1c46-19.5,85-51.9,112.6-92.7C495.9,358.3,512,308.9,512,256C512,220.7,504.8,187,491.9,156.4z
		 M455.6,340.3c-16.4,38.8-43.9,72-78.5,95.3c-17.3,11.7-36.3,20.9-56.7,27.3c-20.3,6.3-41.9,9.7-64.4,9.7c-29.9,0-58.4-6.1-84.3-17
		c-38.8-16.4-72-43.9-95.3-78.5c-11.7-17.3-20.9-36.3-27.3-56.7c-6.3-20.3-9.7-41.9-9.7-64.4c0-29.9,6.1-58.4,17-84.3
		c16.4-38.8,43.9-72,78.5-95.3c17.3-11.7,36.3-20.9,56.7-27.3c20.3-6.3,41.9-9.7,64.4-9.7v0c29.9,0,58.4,6.1,84.3,17
		c38.8,16.4,72,43.9,95.3,78.5c11.7,17.3,20.9,36.3,27.3,56.7c6.3,20.3,9.7,41.9,9.7,64.4C472.6,285.9,466.5,314.4,455.6,340.3z"/>
	<path d="M360.2,192.8L256,297.1L151.8,192.8c-7.7-7.7-20.2-7.7-27.8,0c-7.7,7.7-7.7,20.2,0,27.8l118.2,118.2
		c3.7,3.7,8.7,5.8,13.9,5.8s10.3-2.1,13.9-5.8l118.2-118.2c7.7-7.7,7.7-20.2,0-27.8C380.4,185.2,367.9,185.2,360.2,192.8z"/>
</g>
</svg>
