<?xml version="1.0" encoding="utf-8"?>
<!DOCTYPE svg PUBLIC "-//W3C//DTD SVG 1.1//EN" "http://www.w3.org/Graphics/SVG/1.1/DTD/svg11.dtd">
<svg version="1.1" xmlns="http://www.w3.org/2000/svg" xmlns:xlink="http://www.w3.org/1999/xlink" x="0px" y="0px" viewBox="0 0 256 256" enable-background="new 0 0 256 256" xml:space="preserve">
<g><g><path fill="#D60000" d="M175.9,116.9H80.1c-6.1,0-11.1,5-11.1,11.1c0,6.1,5,11.1,11.1,11.1h95.9c6.1,0,11.1-5,11.1-11.1C187,121.9,182,116.9,175.9,116.9z M128,10C62.8,10,10,62.8,10,128c0,65.2,52.8,118,118,118c65.2,0,118-52.8,118-118C246,62.8,193.2,10,128,10z M128,223.9c-53,0-95.9-42.9-95.9-95.9c0-53,42.9-95.9,95.9-95.9c52.9,0,95.9,42.9,95.9,95.9C223.9,181,181,223.9,128,223.9z"/></g></g>
</svg>
