<svg xmlns="http://www.w3.org/2000/svg" width="72.272" height="72.272" viewBox="0 0 72.272 72.272">
  <g id="Group_6927" data-name="Group 6927" transform="translate(-1482 -743.504)">
    <circle id="Ellipse_111" data-name="Ellipse 111" cx="36.136" cy="36.136" r="36.136" transform="translate(1482 743.504)" fill="currentColor"/>
    <g id="Group_6629" data-name="Group 6629" transform="translate(1499.018 763.623)">
      <path id="Path_6272" data-name="Path 6272" d="M36.261,2.655A6.822,6.822,0,0,0,31.4.64H7.519A6.879,6.879,0,0,0,.647,7.512V23.435a6.879,6.879,0,0,0,6.872,6.871h1.09v5.071a2.843,2.843,0,0,0,1.8,2.684,2.913,2.913,0,0,0,1.1.216,2.8,2.8,0,0,0,2.024-.869l7.141-7.1H31.4a6.879,6.879,0,0,0,6.872-6.871V7.512a6.828,6.828,0,0,0-2.016-4.857Zm.215,20.78A5.077,5.077,0,0,1,31.4,28.506H20.3a.9.9,0,0,0-.635.262l-7.416,7.376a1.039,1.039,0,0,1-1.162.248,1.066,1.066,0,0,1-.675-1.015V29.406a.9.9,0,0,0-.9-.9H7.519a5.077,5.077,0,0,1-5.071-5.071V7.512A5.077,5.077,0,0,1,7.519,2.44H31.4a5.079,5.079,0,0,1,5.071,5.071Z" transform="translate(-0.647 -0.64)" fill="#fff"/>
      <g id="Group_6628" data-name="Group 6628" transform="translate(8.587 4.606)">
        <g id="Group_6627" data-name="Group 6627" transform="translate(7.318 5.287)">
          <path id="Path_6273" data-name="Path 6273" d="M30.878,30.413a.954.954,0,0,0,0,1.907.954.954,0,0,0,0-1.907Z" transform="translate(-28.266 -22.44)" fill="#fff"/>
          <path id="Path_6274" data-name="Path 6274" d="M29.948,17.126c-1.915,0-2.8,1.135-2.8,1.9a.814.814,0,0,0,.852.809c.766,0,.454-1.093,1.9-1.093.709,0,1.277.312,1.277.965,0,.766-.795,1.206-1.263,1.6a2.6,2.6,0,0,0-.951,2.157c0,.738.2.951.781.951.7,0,.837-.312.837-.582a1.783,1.783,0,0,1,.795-1.774,3.634,3.634,0,0,0,1.589-2.6C32.97,18.134,31.764,17.126,29.948,17.126Z" transform="translate(-27.152 -17.126)" fill="#fff"/>
        </g>
        <path id="Path_6275" data-name="Path 6275" d="M25.184,8.315A10.227,10.227,0,1,0,35.412,18.542,10.239,10.239,0,0,0,25.184,8.315Zm0,18.654a8.427,8.427,0,1,1,8.427-8.427A8.437,8.437,0,0,1,25.184,26.969Z" transform="translate(-14.957 -8.315)" fill="#fff"/>
      </g>
    </g>
  </g>
</svg>
