<?xml version="1.0" encoding="utf-8"?>
<!DOCTYPE svg PUBLIC "-//W3C//DTD SVG 1.1//EN" "http://www.w3.org/Graphics/SVG/1.1/DTD/svg11.dtd">
<svg version="1.1" xmlns="http://www.w3.org/2000/svg" xmlns:xlink="http://www.w3.org/1999/xlink" x="0px" y="0px" viewBox="0 0 256 256" enable-background="new 0 0 256 256" xml:space="preserve">
    <g><g><path fill="#00A73A" d="M128,10c16,0,31.3,3.1,45.9,9.3c14.5,6.2,27.1,14.6,37.6,25.1C222,55,230.4,67.6,236.7,82.1c6.2,14.5,9.3,29.8,9.3,45.9c0,16-3.1,31.3-9.3,45.9S222,201,211.5,211.5c-10.5,10.5-23.1,18.9-37.6,25.1c-14.5,6.2-29.8,9.3-45.9,9.3c-16,0-31.3-3.1-45.9-9.3S55,222,44.5,211.5C34,201,25.6,188.4,19.3,173.9C13.1,159.3,10,144,10,128c0-16,3.1-31.3,9.3-45.9C25.6,67.6,34,55,44.5,44.5C55,34,67.6,25.6,82.1,19.3C96.7,13.1,112,10,128,10z M128,31.5c-13.1,0-25.6,2.6-37.5,7.7c-11.9,5.1-22.2,12-30.8,20.6c-8.6,8.6-15.5,18.9-20.6,30.8c-5.1,11.9-7.7,24.4-7.7,37.5s2.6,25.6,7.7,37.5c5.1,11.9,12,22.2,20.6,30.8c8.6,8.6,18.9,15.5,30.8,20.6c11.9,5.1,24.4,7.7,37.5,7.7c13.1,0,25.6-2.6,37.5-7.7s22.2-12,30.8-20.6c8.6-8.6,15.5-18.9,20.6-30.8c5.1-11.9,7.7-24.4,7.7-37.5s-2.6-25.6-7.7-37.5s-12-22.2-20.6-30.8c-8.6-8.6-18.9-15.5-30.8-20.6C153.6,34,141.1,31.5,128,31.5L128,31.5z M128,74.4c3,0,5.5,1,7.6,3.1c2.1,2.1,3.1,4.6,3.1,7.6v32.2h32.2c3,0,5.5,1,7.6,3.1s3.1,4.6,3.1,7.6c0,3-1,5.5-3.1,7.6c-2.1,2.1-4.6,3.1-7.6,3.1h-32.2v32.2c0,3-1,5.5-3.1,7.6c-2.1,2.1-4.6,3.1-7.6,3.1c-3,0-5.5-1-7.6-3.1c-2.1-2.1-3.1-4.6-3.1-7.6v-32.1H85.1c-3,0-5.5-1-7.6-3.1c-2.1-2.1-3.1-4.6-3.1-7.6c0-3,1-5.5,3.1-7.6c2.1-2.1,4.6-3.1,7.6-3.1h32.2V85.1c0-3,1-5.5,3.1-7.6C122.5,75.4,125,74.4,128,74.4z"/></g></g>
</svg>
