<svg xmlns="http://www.w3.org/2000/svg" width="73" height="73" viewBox="0 0 73 73">
  <g id="Group_6930" data-name="Group 6930" transform="translate(16015 880)">
    <circle id="Ellipse_114" data-name="Ellipse 114" cx="36.5" cy="36.5" r="36.5" transform="translate(-16015 -880)" fill="currentColor"/>
    <path id="Path_6277" data-name="Path 6277" d="M93.736,7.071a.841.841,0,0,0-.595-.246H90.079V.841A.841.841,0,0,0,89.238,0H65.477a4.258,4.258,0,0,0-4.253,4.253V38.8a4.067,4.067,0,0,0,3.841,4.253H93.141a.841.841,0,0,0,.841-.841V7.665a.841.841,0,0,0-.246-.595ZM65.477,1.682H88.4V6.824H65.477a2.571,2.571,0,1,1,0-5.143ZM92.3,41.373H65.065A2.4,2.4,0,0,1,62.906,38.8V7.638a4.231,4.231,0,0,0,2.571.868H92.3V41.373ZM77.6,19.909a5.031,5.031,0,1,0,5.031,5.031A5.036,5.036,0,0,0,77.6,19.909Zm0,8.379a3.349,3.349,0,1,1,3.349-3.349A3.352,3.352,0,0,1,77.6,28.288Zm9.344-5.847a1.374,1.374,0,0,1-.971-2.343,1.5,1.5,0,0,0,0-2.118l-1.414-1.414a1.5,1.5,0,0,0-2.119,0A1.374,1.374,0,0,1,80.1,15.6a1.5,1.5,0,0,0-1.5-1.5h-2a1.5,1.5,0,0,0-1.5,1.5,1.374,1.374,0,0,1-2.343.971,1.5,1.5,0,0,0-2.119,0L69.229,17.98a1.5,1.5,0,0,0,0,2.118,1.374,1.374,0,0,1-.97,2.343,1.5,1.5,0,0,0-1.5,1.5v2a1.5,1.5,0,0,0,1.5,1.5,1.374,1.374,0,0,1,.97,2.343,1.5,1.5,0,0,0,0,2.118l1.414,1.414a1.5,1.5,0,0,0,2.118,0,1.373,1.373,0,0,1,2.343.971,1.5,1.5,0,0,0,1.5,1.5h2a1.5,1.5,0,0,0,1.5-1.5,1.374,1.374,0,0,1,2.343-.971,1.5,1.5,0,0,0,2.118,0L85.976,31.9a1.5,1.5,0,0,0,0-2.119,1.374,1.374,0,0,1,.971-2.343,1.5,1.5,0,0,0,1.5-1.5v-2a1.5,1.5,0,0,0-1.5-1.5Zm-.184,3.319a3.056,3.056,0,0,0-2.1,5.075L83.5,32a3.056,3.056,0,0,0-5.075,2.1H76.782A3.055,3.055,0,0,0,71.706,32l-1.162-1.162a3.056,3.056,0,0,0-2.1-5.075V24.118a3.056,3.056,0,0,0,2.1-5.075l1.162-1.162a3.056,3.056,0,0,0,5.075-2.1h1.643a3.056,3.056,0,0,0,5.075,2.1l1.162,1.162a3.056,3.056,0,0,0,2.1,5.075Z" transform="translate(-16056.218 -864.911)" fill="#fff"/>
  </g>
</svg>
