<svg xmlns="http://www.w3.org/2000/svg" width="18.584" height="18.76" viewBox="0 0 18.584 18.76">
  <g id="Group_6815" data-name="Group 6815" transform="translate(-2.4)">
    <g id="Group_6814" data-name="Group 6814" transform="translate(2.4)">
      <g id="Group_6813" data-name="Group 6813" transform="translate(0)">
        <path id="Path_6432" data-name="Path 6432" d="M331.571,240.625a1.8,1.8,0,1,0,1.8,1.8A1.8,1.8,0,0,0,331.571,240.625Zm0,2.433a.63.63,0,1,1,.63-.63A.631.631,0,0,1,331.571,243.058Z" transform="translate(-317.773 -231.808)" fill="#333"/>
        <path id="Path_6433" data-name="Path 6433" d="M16.2,5.833a4.778,4.778,0,0,0-1.017.111V.586A.586.586,0,0,0,14.594,0H2.986A.586.586,0,0,0,2.4.586V18.174a.586.586,0,0,0,.586.586H14.594a.586.586,0,0,0,.586-.586V17.82c.275.363.478.618.56.721a.586.586,0,0,0,.915,0c.443-.552,4.329-5.466,4.329-7.921A4.792,4.792,0,0,0,16.2,5.833ZM9.963,17.587H7.618V13.367H9.963Zm4.045,0H11.135V12.78a.586.586,0,0,0-.586-.586H7.031a.586.586,0,0,0-.586.586v4.807H3.573V1.172H14.008v5.2A4.809,4.809,0,0,0,12.579,7.5a2.416,2.416,0,0,0-.714,1.1,4.74,4.74,0,0,0-.386,1.251,4.248,4.248,0,0,0-.035,1.172A15.118,15.118,0,0,0,14.008,16.2v1.392Zm2.19-.367c-1.315-1.728-3.614-5.067-3.614-6.6a3.614,3.614,0,0,1,7.228,0C19.812,12.151,17.512,15.492,16.2,17.22Z" transform="translate(-2.4)" fill="#333"/>
      </g>
    </g>
  </g>
</svg>
