<svg width="10" height="13" viewBox="0 0 10 13" fill="none" xmlns="http://www.w3.org/2000/svg">
<path d="M6.33276 0.100388C6.39432 0.1004 6.45571 0.112469 6.51245 0.13652C6.56905 0.160576 6.62072 0.195929 6.66382 0.240036L9.16382 2.79863C9.20702 2.84284 9.24114 2.89546 9.2644 2.95293C9.28763 3.01032 9.29954 3.0716 9.29956 3.13359V11.1062C9.29918 11.422 9.17664 11.7251 8.95776 11.949C8.73878 12.1731 8.4413 12.2992 8.13062 12.2996H1.26929C0.958607 12.2992 0.66112 12.1731 0.442139 11.949C0.223259 11.7251 0.100726 11.422 0.100342 11.1062V1.29375C0.100726 0.977997 0.223259 0.674927 0.442139 0.450974C0.66112 0.226942 0.958607 0.100748 1.26929 0.100388H6.33276ZM1.26929 1.04961C1.2074 1.04968 1.14776 1.0754 1.10327 1.1209C1.05879 1.16641 1.03312 1.22843 1.03296 1.29375V11.1062C1.03312 11.1716 1.05879 11.2336 1.10327 11.2791C1.14776 11.3246 1.2074 11.3503 1.26929 11.3504H8.13062C8.1925 11.3503 8.25215 11.3246 8.29663 11.2791C8.34111 11.2336 8.36678 11.1716 8.36694 11.1062V3.32988L6.13745 1.04961H1.26929ZM7.03687 8.46758C7.16116 8.4677 7.27975 8.51802 7.36694 8.60722C7.45417 8.69647 7.50269 8.81694 7.50269 8.94218C7.50269 9.06743 7.45417 9.1879 7.36694 9.27715C7.27975 9.36635 7.16116 9.41667 7.03687 9.41679H2.28101C2.15654 9.41679 2.03725 9.36646 1.94995 9.27715C1.86288 9.18792 1.81421 9.06731 1.81421 8.94218C1.81421 8.81706 1.86288 8.69644 1.94995 8.60722C2.03725 8.5179 2.15654 8.46758 2.28101 8.46758H7.03687ZM7.03687 6.1707C7.16116 6.17082 7.27975 6.22114 7.36694 6.31035C7.45417 6.3996 7.50269 6.52006 7.50269 6.64531C7.50269 6.77056 7.45417 6.89102 7.36694 6.98027C7.27975 7.06947 7.16116 7.1198 7.03687 7.11992H2.28101C2.15654 7.11991 2.03725 7.06959 1.94995 6.98027C1.86288 6.89105 1.81421 6.77044 1.81421 6.64531C1.81421 6.52018 1.86288 6.39957 1.94995 6.31035C2.03725 6.22103 2.15654 6.17071 2.28101 6.1707H7.03687ZM7.03687 3.87383C7.16116 3.87395 7.27975 3.92427 7.36694 4.01347C7.45417 4.10272 7.50269 4.22319 7.50269 4.34843C7.50269 4.47368 7.45417 4.59415 7.36694 4.6834C7.27975 4.7726 7.16116 4.82292 7.03687 4.82304H2.28101C2.15654 4.82304 2.03725 4.77271 1.94995 4.6834C1.86288 4.59417 1.81421 4.47356 1.81421 4.34843C1.81421 4.2233 1.86288 4.10269 1.94995 4.01347C2.03725 3.92415 2.15654 3.87383 2.28101 3.87383H7.03687Z" fill="black" stroke="black" stroke-width="0.2"/>
</svg>
