<svg xmlns="http://www.w3.org/2000/svg" width="11.48" height="11.48" viewBox="0 0 11.48 11.48">
  <path id="Icon_awesome-question-circle" data-name="Icon awesome-question-circle" d="M12.043,6.3A5.74,5.74,0,1,1,6.3.563,5.74,5.74,0,0,1,12.043,6.3ZM6.457,2.46a3,3,0,0,0-2.7,1.476.278.278,0,0,0,.063.376l.8.609a.278.278,0,0,0,.386-.049c.413-.524.7-.829,1.326-.829.473,0,1.058.3,1.058.763,0,.347-.286.525-.753.786C6.1,5.9,5.377,6.278,5.377,7.229v.093a.278.278,0,0,0,.278.278h1.3a.278.278,0,0,0,.278-.278V7.29c0-.659,1.925-.686,1.925-2.469A2.641,2.641,0,0,0,6.457,2.46ZM6.3,8.2A1.065,1.065,0,1,0,7.367,9.265,1.066,1.066,0,0,0,6.3,8.2Z" transform="translate(-0.563 -0.563)" fill="#333"/>
</svg>
