<svg xmlns="http://www.w3.org/2000/svg" width="18.684" height="14.256" viewBox="0 0 18.684 14.256">
  <path id="Path_6434" data-name="Path 6434" d="M16.588,61H2a2,2,0,0,0-2,2V73.159a2,2,0,0,0,2,2H16.588a2,2,0,0,0,2-2V63A2,2,0,0,0,16.588,61Zm.907,2V73.159a.88.88,0,0,1-.01.132l-5.235-5.213,5.235-5.213A.88.88,0,0,1,17.5,63Zm-.907-.907a.944.944,0,0,1,.125.009l-7.421,7.39L1.871,62.1A.942.942,0,0,1,2,62.089ZM1.1,73.291a.88.88,0,0,1-.01-.132V63a.88.88,0,0,1,.01-.132l5.235,5.213Zm.9.776a.939.939,0,0,1-.125-.009l5.234-5.212,1.8,1.8a.544.544,0,0,0,.768,0l1.8-1.8,5.234,5.212a.939.939,0,0,1-.125.009Z" transform="translate(0.05 -60.95)" fill="#3b3b3b" stroke="#3b3b3b" stroke-width="0.1"/>
</svg>
