<svg xmlns="http://www.w3.org/2000/svg" width="19.617" height="19.617" viewBox="0 0 19.617 19.617">
  <g id="Icon_ionic-ios-checkmark-circle-outline" data-name="Icon ionic-ios-checkmark-circle-outline" transform="translate(-3.375 -3.375)">
    <path id="Path_6879" data-name="Path 6879" d="M20.535,13.116l-.83-.854a.178.178,0,0,0-.132-.057h0a.171.171,0,0,0-.132.057l-5.753,5.8-2.094-2.094a.182.182,0,0,0-.264,0l-.839.839a.188.188,0,0,0,0,.269l2.641,2.641a.835.835,0,0,0,.552.269.875.875,0,0,0,.547-.259h0l6.3-6.338A.2.2,0,0,0,20.535,13.116Z" transform="translate(-2.325 -2.908)" fill="#01a73a"/>
    <path id="Path_6880" data-name="Path 6880" d="M13.183,4.7a8.485,8.485,0,1,1-6,2.485,8.432,8.432,0,0,1,6-2.485m0-1.32a9.808,9.808,0,1,0,9.808,9.808,9.807,9.807,0,0,0-9.808-9.808Z" fill="#01a73a"/>
  </g>
</svg>
