<svg xmlns="http://www.w3.org/2000/svg" width="143.793" height="160.858" viewBox="0 0 143.793 160.858">
  <g transform="translate(-146.627 -52.447)">
    <path id="Path_4887" data-name="Path 4887" d="M290.169,70.476A17.778,17.778,0,0,0,272.391,52.7H190.454a17.778,17.778,0,0,0-17.779,17.779V82.96a3.791,3.791,0,0,0-.612,0h-7.407a17.778,17.778,0,0,0-17.779,17.778v94.54a17.778,17.778,0,0,0,17.779,17.779h78.283a17.778,17.778,0,0,0,17.779-17.779v-4.543H272.39a17.778,17.778,0,0,0,17.779-17.778Zm-37.355,124.8a9.874,9.874,0,0,1-9.877,9.877H164.656a9.874,9.874,0,0,1-9.877-9.877v-94.6a9.877,9.877,0,0,1,9.877-9.877h7.427a3.77,3.77,0,0,0,.612,0v82.134a17.781,17.781,0,0,0,17.779,17.779h62.339Zm29.452-22.321h0a9.877,9.877,0,0,1-9.877,9.877H190.453a9.877,9.877,0,0,1-9.877-9.877V70.473a9.875,9.875,0,0,1,9.877-9.877H272.39a9.875,9.875,0,0,1,9.877,9.877Z" transform="translate(0 0)" fill="#FFF" stroke="#FFF" stroke-width="0.5"/>
    <path id="Path_4888" data-name="Path 4888" d="M334.841,301.56H293.511a2.711,2.711,0,0,0,0,5.422h41.341a2.711,2.711,0,0,0,0-5.422Z" transform="translate(-78.71 -159.652)" fill="#FFF" stroke="#FFF" stroke-width="0.5"/>
    <path id="Path_4889" data-name="Path 4889" d="M334.841,225.29H293.511a2.711,2.711,0,0,0,0,5.421h41.341a2.711,2.711,0,1,0,0-5.421Z" transform="translate(-78.71 -110.723)" fill="#FFF" stroke="#FFF" stroke-width="0.5"/>
    <path id="Path_4890" data-name="Path 4890" d="M293.522,154.433h26.31a2.711,2.711,0,1,0,0-5.421h-26.31a2.711,2.711,0,0,0,0,5.421Z" transform="translate(-85.572 -61.789)" fill="#FFF" stroke="#FFF" stroke-width="0.5"/>
  </g>
</svg>
