<svg xmlns="http://www.w3.org/2000/svg" width="19.782" height="19.811" viewBox="0 0 19.782 19.811">
  <g id="Group_6933" class="color fill" data-name="Group 6933" transform="translate(-247.7 -666.156)">
    <path id="Path_6234" data-name="Path 6234" d="M298.345,225.29h-7.08a.464.464,0,0,0,0,.929h7.082a.464.464,0,0,0,0-.929Z" transform="translate(-38.834 450.46)" fill="currentColor" stroke="currentColor" stroke-width="0.5"/>
    <path id="Path_6235" data-name="Path 6235" d="M291.275,149.941h4.507a.464.464,0,0,0,0-.929h-4.507a.464.464,0,0,0,0,.929Z" transform="translate(-38.844 523.575)" fill="currentColor" stroke="currentColor" stroke-width="0.5"/>
    <g id="Group_6931" data-name="Group 6931" transform="translate(247.5 665.956)">
      <path id="Path_6233" data-name="Path 6233" d="M17.6.5H2.585A2.087,2.087,0,0,0,.5,2.585V13.427a2.087,2.087,0,0,0,2.085,2.085h.26l-.72,2.214a1.563,1.563,0,0,0,.448,1.689,1.1,1.1,0,0,0,1.272.119l7.188-4.022H17.6a2.087,2.087,0,0,0,2.085-2.085V2.585A2.087,2.087,0,0,0,17.6.5Zm1.251,12.927A1.252,1.252,0,0,1,17.6,14.678H10.925a.415.415,0,0,0-.2.053L3.438,18.805A.271.271,0,0,1,3.1,18.77a.733.733,0,0,1-.183-.788l.9-2.759a.417.417,0,0,0-.4-.546H2.585a1.252,1.252,0,0,1-1.251-1.251V2.585A1.252,1.252,0,0,1,2.585,1.334H17.6a1.252,1.252,0,0,1,1.251,1.251Z" fill="currentColor" stroke="currentColor" stroke-width="0.6"/>
    </g>
  </g>
</svg>
