<svg xmlns="http://www.w3.org/2000/svg" width="13.929" height="13.929" viewBox="0 0 13.929 13.929">
  <path id="Icon_material-exit-to-app" data-name="Icon material-exit-to-app" d="M9.986,14.242l1.091,1.091,3.869-3.869L11.077,7.6,9.986,8.686l2,2H4.5v1.548h7.483ZM16.881,4.5H6.048A1.547,1.547,0,0,0,4.5,6.048v3.1H6.048v-3.1H16.881V16.881H6.048v-3.1H4.5v3.1a1.547,1.547,0,0,0,1.548,1.548H16.881a1.552,1.552,0,0,0,1.548-1.548V6.048A1.552,1.552,0,0,0,16.881,4.5Z" transform="translate(-4.5 -4.5)" fill="#3b343f"/>
</svg>
