<svg xmlns="http://www.w3.org/2000/svg" xmlns:xlink="http://www.w3.org/1999/xlink" viewBox="0 0 1710 251.83"><defs><style>.cls-1{fill:url(#linear-gradient);}.cls-2,.cls-3{fill:#fff;}.cls-3{fill-rule:evenodd;}.cls-4{fill:#09f;}</style><linearGradient id="linear-gradient" x1="533.79" y1="126.13" x2="1710" y2="126.13" gradientUnits="userSpaceOnUse"><stop offset="0" stop-color="#09f"/><stop offset="0.19" stop-color="#1386ec"/><stop offset="0.44" stop-color="#2574da"/><stop offset="0.7" stop-color="#3069cf"/><stop offset="1" stop-color="#36c"/></linearGradient></defs><title>av-logo</title><g id="Layer_2" data-name="Layer 2"><g id="Layer_1-2" data-name="Layer 1"><polygon class="cls-1" points="633.66 0.43 533.79 251.83 1710 251.83 1710 0.43 633.66 0.43"/><path id="A" class="cls-2" d="M706.55,47.5H661.21L608.26,204.76h34.65l8.39-22.89,26.26-.22.86,23.1h37.88ZM675.42,152.17H658.84l16.57-54.24Z"/><path id="U" class="cls-2" d="M782.89,47.5,767.11,163.15s-2.15,17.22,9.18,17.79,13.06-8.75,14.92-17.51S811,47.5,811,47.5h34.15L825.65,181s-4.94,32.92-52.52,30.11c-37.07-2.19-42.48-19.53-42.66-30.28C730,153.25,746.73,47.5,746.73,47.5Z"/><polygon id="T" class="cls-2" points="857.95 205.2 875.01 77.92 856.07 77.92 860.38 47.5 936.43 47.5 932.12 77.63 911.46 77.63 891.33 205.2 857.95 205.2"/><path id="O" class="cls-2" d="M1006.6,45.7c-42.66-6-65.9,29-73.73,74.92-4.38,25.65-12.32,80,37.52,90.31,31.85,6.62,63.38-21,71.82-66.75S1048.11,51.52,1006.6,45.7Zm2.76,88.19c-5.56,28.94-22.55,48.55-30.08,46.91-15.61-3.4-16.52-28.36-12.21-54.93,4.71-29.09,18.06-50.41,31.15-48.52C1013.9,79.62,1014.27,108.3,1009.36,133.89Z"/><path id="O-2" data-name="O" class="cls-2" d="M1452.93,45.7c-42.66-6-65.9,29-73.73,74.92-4.38,25.65-12.32,80,37.52,90.31,31.85,6.62,63.38-21,71.82-66.75S1494.44,51.52,1452.93,45.7Zm2.76,88.19c-5.56,28.94-22.55,48.55-30.08,46.91-15.61-3.4-16.52-28.36-12.21-54.93,4.71-29.09,18.06-50.41,31.15-48.52C1460.23,79.62,1460.6,108.3,1455.69,133.89Z"/><polygon id="V" class="cls-2" points="1131 47.57 1102.59 127.52 1095.99 47.57 1059.83 47.57 1073.61 204.69 1110.63 204.69 1165.73 47.57 1131 47.57"/><polygon id="I" class="cls-2" points="1185.82 47.57 1217.67 47.57 1192.99 204.69 1161.42 204.69 1185.82 47.57"/><polygon id="I-2" data-name="I" class="cls-2" points="1339.93 47.57 1371.78 47.57 1347.1 204.69 1315.54 204.69 1339.93 47.57"/><path id="S" class="cls-3" d="M1264.09,45.78c15.12-1.44,34.87-.05,45,10.89l-7.54,26.21c-2.12-1.74-1.62-1.39-2.12-1.74-4.49-3.08-8.93-6.4-14.47-7.08-7.29-.9-15.53,1.69-18.94,8.57-5.42,10.92.29,21.25,7.76,29.43,8,8.82,18,15.52,23,26.7,4.2,9.38,5.56,19.88,5.21,30.09-.35,10-3.14,18.76-10.57,25.8-13.95,13.22-36.35,16.8-54.72,13.61a57.7,57.7,0,0,1-10.79-2.92c-1-.39-9.4-3.69-9.2-4.82,1.75-10.06,3.24-20.24,5.38-30.22-.55,2.56,9.53,6.77,11.33,7.52,7.54,3.18,19.71,5,26.23-1.4a22.28,22.28,0,0,0,4-5.84c9.13-17.78-8.39-32.69-18.75-45.14-11.09-13.33-21.91-29.13-17.15-47.33,2.18-8.3,6.63-16.29,13.26-21.85C1246.89,51.32,1256.35,46.51,1264.09,45.78Z"/><polygon id="N" class="cls-2" points="1591.9 49.51 1578.34 125.27 1557.89 49.51 1526.04 49.51 1501.29 206.31 1533.06 206.31 1549.24 124.73 1568.29 206.31 1599.22 206.31 1623.33 49.51 1591.9 49.51"/><polygon class="cls-4" points="75.47 67.87 185.45 67.87 197.2 38.88 87.36 38.88 75.47 67.87"/><polygon class="cls-4" points="170.79 104.03 182.66 74.76 72.64 74.76 60.63 104.03 170.79 104.03"/><polygon class="cls-4" points="199.93 38.88 211.22 67.87 319.6 67.87 308.12 38.88 199.93 38.88"/><polygon class="cls-4" points="156.37 139.62 168 110.92 57.81 110.92 46.03 139.62 156.37 139.62"/><polygon class="cls-4" points="365.18 182.95 28.26 182.95 16.4 211.86 376.63 211.86 365.18 182.95"/><polygon class="cls-4" points="213.9 74.76 225.3 104.03 333.93 104.03 322.33 74.76 213.9 74.76"/><polygon class="cls-4" points="565.76 32 578.56 0 471.8 0 458.12 32 565.76 32"/><polygon class="cls-4" points="336.65 110.92 227.98 110.92 239.15 139.62 348.02 139.62 336.65 110.92"/><polygon class="cls-4" points="505.38 182.95 393.55 182.95 381.18 211.86 493.81 211.86 505.38 182.95"/><polygon class="cls-4" points="305.4 32 292.72 0 103.31 0 90.19 32 305.4 32"/><polygon class="cls-4" points="13.57 218.75 0 251.83 109.94 251.83 110.78 249.82 123.6 218.75 13.57 218.75"/><polygon class="cls-4" points="455.17 38.88 442.77 67.87 551.41 67.87 563.01 38.88 455.17 38.88"/><polygon class="cls-4" points="271.31 218.75 283.97 251.83 477.83 251.83 491.06 218.75 271.31 218.75"/><polygon class="cls-4" points="362.45 176.06 350.75 146.51 43.21 146.51 31.08 176.06 362.45 176.06"/><polygon class="cls-4" points="409.14 146.51 396.5 176.06 508.13 176.06 519.96 146.51 409.14 146.51"/><polygon class="cls-4" points="439.82 74.76 427.3 104.03 536.95 104.03 548.65 74.76 439.82 74.76"/><polygon class="cls-4" points="424.36 110.92 412.08 139.62 522.71 139.62 534.19 110.92 424.36 110.92"/></g></g></svg>